<?xml version="1.0" encoding="UTF-8"?>
<svg width="792px" height="361px" viewBox="0 0 792 361" version="1.1" xmlns="http://www.w3.org/2000/svg" xmlns:xlink="http://www.w3.org/1999/xlink">
    <!-- Generator: Sketch 63 (92445) - https://sketch.com -->
    <title>multi-layer-0</title>
    <desc>Created with Sketch.</desc>
    <g id="multi-layer-0" stroke="none" stroke-width="1" fill="none" fill-rule="evenodd">
        <rect fill="#FFFFFF" x="0" y="0" width="792" height="361"></rect>
        <g id="Group" transform="translate(141.000500, 94.228300)" stroke="#BAC0CF">
            <line x1="345.8175" y1="0.5" x2="374.1085" y2="0.5" id="Stroke-1"></line>
            <line x1="345.8175" y1="11.375" x2="374.1085" y2="0.5" id="Stroke-2"></line>
            <line x1="345.8175" y1="23" x2="374.1085" y2="0.5" id="Stroke-3"></line>
            <line x1="345.8175" y1="41.375" x2="374.1085" y2="0.5" id="Stroke-4"></line>
            <line x1="345.8175" y1="60.75" x2="374.1085" y2="60.75" id="Stroke-5"></line>
            <line x1="345.8175" y1="49.75" x2="374.1085" y2="60.75" id="Stroke-6"></line>
            <line x1="345.8175" y1="72.5" x2="374.1085" y2="60.75" id="Stroke-7"></line>
            <line x1="345.8175" y1="90.375" x2="374.1085" y2="60.75" id="Stroke-8"></line>
            <line x1="345.8175" y1="120.5" x2="374.1085" y2="120.5" id="Stroke-9"></line>
            <line x1="345.8175" y1="98" x2="374.1085" y2="120.5" id="Stroke-10"></line>
            <line x1="345.8175" y1="108.875" x2="374.1085" y2="120.5" id="Stroke-11"></line>
            <line x1="345.8175" y1="139.75" x2="374.1085" y2="120.5" id="Stroke-12"></line>
            <line x1="345.8175" y1="225" x2="374.1085" y2="225" id="Stroke-13"></line>
            <line x1="345.8175" y1="205.583" x2="374.1085" y2="225" id="Stroke-14"></line>
            <line x1="345.8175" y1="195.583" x2="374.1085" y2="225" id="Stroke-15"></line>
            <line x1="345.8175" y1="184.7837" x2="374.1085" y2="224.9997" id="Stroke-16"></line>
            <line x1="45.502" y1="30.5" x2="135.646" y2="0.5" id="Stroke-17"></line>
            <line x1="45.502" y1="30.5" x2="135.646" y2="225" id="Stroke-18"></line>
            <line x1="45.502" y1="90" x2="135.646" y2="0.5" id="Stroke-19"></line>
            <line x1="45.502" y1="30.5" x2="135.646" y2="60.75" id="Stroke-20"></line>
            <line x1="135.6456" y1="0.5" x2="45.5016" y2="195.5" id="Stroke-21"></line>
            <line x1="45.502" y1="90" x2="135.646" y2="120.5" id="Stroke-22"></line>
            <line x1="45.502" y1="195.5" x2="134.065" y2="120.5" id="Stroke-23"></line>
            <line x1="135.6456" y1="60.75" x2="45.5016" y2="195.5" id="Stroke-24"></line>
            <line x1="45.502" y1="90" x2="135.646" y2="225" id="Stroke-25"></line>
            <line x1="45.502" y1="195.5" x2="135.646" y2="225" id="Stroke-26"></line>
            <line x1="45.502" y1="30.5" x2="135.646" y2="120.5" id="Stroke-27"></line>
            <line x1="135.6456" y1="0.5" x2="224.1456" y2="225" id="Stroke-28"></line>
            <line x1="135.6456" y1="225" x2="224.1456" y2="0.5" id="Stroke-29"></line>
            <line x1="135.6456" y1="0.5" x2="224.1456" y2="0.5" id="Stroke-30"></line>
            <line x1="135.6456" y1="60.75" x2="224.1456" y2="0.5" id="Stroke-31"></line>
            <line x1="135.6456" y1="0.5" x2="224.1456" y2="60.75" id="Stroke-32"></line>
            <line x1="135.6456" y1="120.5" x2="224.1456" y2="120.5" id="Stroke-33"></line>
            <line x1="224.1456" y1="120.5" x2="251.2496" y2="120.5" id="Stroke-34"></line>
            <line x1="251.2496" y1="99.25" x2="224.1456" y2="120.5" id="Stroke-35"></line>
            <line x1="251.2496" y1="109.875" x2="224.1456" y2="120.5" id="Stroke-36"></line>
            <line x1="251.2496" y1="139.25" x2="224.1456" y2="120.5" id="Stroke-37"></line>
            <line x1="224.1456" y1="60.75" x2="251.2496" y2="90" id="Stroke-38"></line>
            <line x1="251.2496" y1="70.75" x2="224.1456" y2="60.75" id="Stroke-39"></line>
            <line x1="251.2496" y1="49.25" x2="224.1456" y2="60.75" id="Stroke-40"></line>
            <line x1="251.2496" y1="59.75" x2="135.6456" y2="60.75" id="Stroke-41"></line>
            <line x1="224.1456" y1="0.5" x2="251.2496" y2="0.5" id="Stroke-42"></line>
            <line x1="251.2496" y1="10.75" x2="224.1456" y2="0.5" id="Stroke-43"></line>
            <line x1="251.2496" y1="22.75" x2="224.1456" y2="0.5" id="Stroke-44"></line>
            <line x1="251.2496" y1="39.25" x2="224.1456" y2="0.5" id="Stroke-45"></line>
            <line x1="135.6456" y1="120.5" x2="224.1456" y2="0.5" id="Stroke-46"></line>
            <line x1="135.6456" y1="0.5" x2="224.1456" y2="120.5" id="Stroke-47"></line>
            <line x1="135.6456" y1="60.75" x2="224.1456" y2="120.5" id="Stroke-48"></line>
            <line x1="45.502" y1="90" x2="135.646" y2="60.75" id="Stroke-49"></line>
            <line x1="135.6456" y1="120.5" x2="225.3026" y2="60.25" id="Stroke-50"></line>
            <line x1="135.6456" y1="225" x2="251.2496" y2="225" id="Stroke-51"></line>
            <line x1="135.6456" y1="120.5" x2="224.6206" y2="225" id="Stroke-52"></line>
            <line x1="225.3023" y1="60.25" x2="135.6453" y2="225" id="Stroke-53"></line>
            <line x1="224.1456" y1="120.5" x2="135.6456" y2="225" id="Stroke-54"></line>
            <line x1="135.6456" y1="60.75" x2="224.1456" y2="224.442" id="Stroke-55"></line>
            <line x1="251.2496" y1="184.7837" x2="224.1456" y2="224.4427" id="Stroke-56"></line>
            <line x1="251.2496" y1="196.083" x2="224.1456" y2="224.442" id="Stroke-57"></line>
            <line x1="251.2496" y1="206.9165" x2="224.1456" y2="224.4425" id="Stroke-58"></line>
            <line x1="45.502" y1="30.5" x2="-2.48689958e-14" y2="30.5" id="Stroke-59"></line>
            <line x1="45.502" y1="90" x2="-2.48689958e-14" y2="90" id="Stroke-61"></line>
            <line x1="45.502" y1="195.5" x2="-2.48689958e-14" y2="195.5" id="Stroke-63"></line>
            <line x1="464.2515" y1="30.5" x2="374.1075" y2="0.5" id="Stroke-108"></line>
            <line x1="464.2515" y1="30.5" x2="374.1075" y2="225" id="Stroke-110"></line>
            <line x1="464.2515" y1="90" x2="374.1075" y2="0.5" id="Stroke-112"></line>
            <line x1="464.2515" y1="30.5" x2="374.1075" y2="60.75" id="Stroke-114"></line>
            <line x1="374.108" y1="0.5" x2="464.252" y2="195.5" id="Stroke-116"></line>
            <line x1="464.2515" y1="90" x2="374.1075" y2="120.5" id="Stroke-118"></line>
            <line x1="464.2515" y1="195.5" x2="375.6885" y2="120.5" id="Stroke-120"></line>
            <line x1="374.108" y1="60.75" x2="464.252" y2="195.5" id="Stroke-122"></line>
            <line x1="464.2515" y1="90" x2="374.1075" y2="225" id="Stroke-124"></line>
            <line x1="464.2515" y1="195.5" x2="374.1075" y2="225" id="Stroke-126"></line>
            <line x1="464.2515" y1="30.5" x2="374.1075" y2="120.5" id="Stroke-128"></line>
            <line x1="464.2515" y1="90" x2="374.1075" y2="60.75" id="Stroke-130"></line>
            <line x1="464.2515" y1="30.5" x2="509.7535" y2="30.5" id="Stroke-132"></line>
            <line x1="464.2515" y1="90" x2="509.7535" y2="90" id="Stroke-134"></line>
            <line x1="464.2515" y1="195.5" x2="509.7535" y2="195.5" id="Stroke-136"></line>
        </g>
        <g id="Group-2" transform="translate(182.417000, 108.914000)" fill="#333333">
            <polygon id="Fill-66" points="7.10542736e-15 122.775 3.086 122.775 3.086 119.69 7.10542736e-15 119.69"></polygon>
            <polygon id="Fill-67" points="7.10542736e-15 128.775 3.086 128.775 3.086 125.69 7.10542736e-15 125.69"></polygon>
            <polygon id="Fill-68" points="7.10542736e-15 134.775 3.086 134.775 3.086 131.69 7.10542736e-15 131.69"></polygon>
            <polygon id="Fill-69" points="91.167 150.94 94.252 150.94 94.252 147.854 91.167 147.854"></polygon>
            <polygon id="Fill-70" points="91.167 156.94 94.252 156.94 94.252 153.854 91.167 153.854"></polygon>
            <polygon id="Fill-71" points="91.167 162.94 94.252 162.94 94.252 159.854 91.167 159.854"></polygon>
            <polygon id="Fill-72" points="180.666 150.94 183.752 150.94 183.752 147.854 180.666 147.854"></polygon>
            <polygon id="Fill-73" points="180.666 156.94 183.752 156.94 183.752 153.854 180.666 153.854"></polygon>
            <polygon id="Fill-74" points="180.666 162.94 183.752 162.94 183.752 159.854 180.666 159.854"></polygon>
            <polygon id="Fill-75" points="254.247 3.086 257.333 3.086 257.333 5.68434189e-13 254.247 5.68434189e-13"></polygon>
            <polygon id="Fill-76" points="254.247 9.086 257.333 9.086 257.333 6 254.247 6"></polygon>
            <polygon id="Fill-77" points="254.247 15.086 257.333 15.086 257.333 12 254.247 12"></polygon>
            <polygon id="Fill-78" points="254.247 62.607 257.333 62.607 257.333 59.522 254.247 59.522"></polygon>
            <polygon id="Fill-79" points="254.247 68.607 257.333 68.607 257.333 65.522 254.247 65.522"></polygon>
            <polygon id="Fill-80" points="254.247 74.607 257.333 74.607 257.333 71.522 254.247 71.522"></polygon>
            <polygon id="Fill-81" points="254.247 122.775 257.333 122.775 257.333 119.69 254.247 119.69"></polygon>
            <polygon id="Fill-82" points="254.247 128.775 257.333 128.775 257.333 125.69 254.247 125.69"></polygon>
            <polygon id="Fill-83" points="254.247 134.775 257.333 134.775 257.333 131.69 254.247 131.69"></polygon>
            <polygon id="Fill-138" points="420.835 122.775 423.921 122.775 423.921 119.69 420.835 119.69"></polygon>
            <polygon id="Fill-140" points="420.835 128.775 423.921 128.775 423.921 125.69 420.835 125.69"></polygon>
            <polygon id="Fill-141" points="420.835 134.775 423.921 134.775 423.921 131.69 420.835 131.69"></polygon>
            <polygon id="Fill-142" points="330.668 150.94 333.754 150.94 333.754 147.854 330.668 147.854"></polygon>
            <polygon id="Fill-143" points="330.668 156.94 333.754 156.94 333.754 153.854 330.668 153.854"></polygon>
            <polygon id="Fill-144" points="330.668 162.94 333.754 162.94 333.754 159.854 330.668 159.854"></polygon>
        </g>
        <path d="M199.2306,124.7283 C199.2306,117.6983 193.5316,112.0003 186.5026,112.0003 C179.4726,112.0003 173.7746,117.6983 173.7746,124.7283 C173.7746,131.7573 179.4726,137.4563 186.5026,137.4563 C193.5316,137.4563 199.2306,131.7573 199.2306,124.7283" id="Fill-84" fill="#73B0DE"></path>
        <path d="M199.2306,184.2283 C199.2306,177.1983 193.5316,171.5003 186.5026,171.5003 C179.4726,171.5003 173.7746,177.1983 173.7746,184.2283 C173.7746,191.2573 179.4726,196.9563 186.5026,196.9563 C193.5316,196.9563 199.2306,191.2573 199.2306,184.2283" id="Fill-86" fill="#73B0DE"></path>
        <path d="M199.2306,289.7283 C199.2306,282.6983 193.5316,277.0003 186.5026,277.0003 C179.4726,277.0003 173.7746,282.6983 173.7746,289.7283 C173.7746,296.7573 179.4726,302.4563 186.5026,302.4563 C193.5316,302.4563 199.2306,296.7573 199.2306,289.7283" id="Fill-88" fill="#73B0DE"></path>
        <path d="M289.3741,94.7283 C289.3741,87.6983 283.6751,82.0003 276.6461,82.0003 C269.6161,82.0003 263.9181,87.6983 263.9181,94.7283 C263.9181,101.7573 269.6161,107.4563 276.6461,107.4563 C283.6751,107.4563 289.3741,101.7573 289.3741,94.7283" id="Fill-90" fill="#73B0DE"></path>
        <path d="M289.3741,154.9783 C289.3741,147.9483 283.6751,142.2503 276.6461,142.2503 C269.6161,142.2503 263.9181,147.9483 263.9181,154.9783 C263.9181,162.0073 269.6161,167.7063 276.6461,167.7063 C283.6751,167.7063 289.3741,162.0073 289.3741,154.9783" id="Fill-92" fill="#73B0DE"></path>
        <path d="M289.3741,214.7283 C289.3741,207.6983 283.6751,202.0003 276.6461,202.0003 C269.6161,202.0003 263.9181,207.6983 263.9181,214.7283 C263.9181,221.7573 269.6161,227.4563 276.6461,227.4563 C283.6751,227.4563 289.3741,221.7573 289.3741,214.7283" id="Fill-94" fill="#73B0DE"></path>
        <path d="M377.8741,94.7283 C377.8741,87.6983 372.1751,82.0003 365.1461,82.0003 C358.1161,82.0003 352.4181,87.6983 352.4181,94.7283 C352.4181,101.7573 358.1161,107.4563 365.1461,107.4563 C372.1751,107.4563 377.8741,101.7573 377.8741,94.7283" id="Fill-99" fill="#73B0DE"></path>
        <path d="M289.3741,319.2283 C289.3741,312.1983 283.6751,306.5003 276.6461,306.5003 C269.6161,306.5003 263.9181,312.1983 263.9181,319.2283 C263.9181,326.2573 269.6161,331.9563 276.6461,331.9563 C283.6751,331.9563 289.3741,326.2573 289.3741,319.2283" id="Fill-96" fill="#73B0DE"></path>
        <path d="M377.8741,154.9783 C377.8741,147.9483 372.1751,142.2503 365.1461,142.2503 C358.1161,142.2503 352.4181,147.9483 352.4181,154.9783 C352.4181,162.0073 358.1161,167.7063 365.1461,167.7063 C372.1751,167.7063 377.8741,162.0073 377.8741,154.9783" id="Fill-101" fill="#73B0DE"></path>
        <path d="M377.8741,214.7283 C377.8741,207.6983 372.1751,202.0003 365.1461,202.0003 C358.1161,202.0003 352.4181,207.6983 352.4181,214.7283 C352.4181,221.7573 358.1161,227.4563 365.1461,227.4563 C372.1751,227.4563 377.8741,221.7573 377.8741,214.7283" id="Fill-103" fill="#73B0DE"></path>
        <path d="M377.8741,319.2283 C377.8741,312.1983 372.1751,306.5003 365.1461,306.5003 C358.1161,306.5003 352.4181,312.1983 352.4181,319.2283 C352.4181,326.2573 358.1161,331.9563 365.1461,331.9563 C372.1751,331.9563 377.8741,326.2573 377.8741,319.2283" id="Fill-105" fill="#73B0DE"></path>
        <path d="M592.524,124.7283 C592.524,117.6983 598.223,112.0003 605.252,112.0003 C612.281,112.0003 617.98,117.6983 617.98,124.7283 C617.98,131.7573 612.281,137.4563 605.252,137.4563 C598.223,137.4563 592.524,131.7573 592.524,124.7283" id="Fill-145" fill="#73B0DE"></path>
        <path d="M592.524,184.2283 C592.524,177.1983 598.223,171.5003 605.252,171.5003 C612.281,171.5003 617.98,177.1983 617.98,184.2283 C617.98,191.2573 612.281,196.9563 605.252,196.9563 C598.223,196.9563 592.524,191.2573 592.524,184.2283" id="Fill-146" fill="#73B0DE"></path>
        <path d="M592.524,289.7283 C592.524,282.6983 598.223,277.0003 605.252,277.0003 C612.281,277.0003 617.98,282.6983 617.98,289.7283 C617.98,296.7573 612.281,302.4563 605.252,302.4563 C598.223,302.4563 592.524,296.7573 592.524,289.7283" id="Fill-147" fill="#73B0DE"></path>
        <path d="M502.3805,94.7283 C502.3805,87.6983 508.0795,82.0003 515.1085,82.0003 C522.1375,82.0003 527.8365,87.6983 527.8365,94.7283 C527.8365,101.7573 522.1375,107.4563 515.1085,107.4563 C508.0795,107.4563 502.3805,101.7573 502.3805,94.7283" id="Fill-148" fill="#73B0DE"></path>
        <path d="M502.3805,154.9783 C502.3805,147.9483 508.0795,142.2503 515.1085,142.2503 C522.1375,142.2503 527.8365,147.9483 527.8365,154.9783 C527.8365,162.0073 522.1375,167.7063 515.1085,167.7063 C508.0795,167.7063 502.3805,162.0073 502.3805,154.9783" id="Fill-149" fill="#73B0DE"></path>
        <path d="M502.3805,214.7283 C502.3805,207.6983 508.0795,202.0003 515.1085,202.0003 C522.1375,202.0003 527.8365,207.6983 527.8365,214.7283 C527.8365,221.7573 522.1375,227.4563 515.1085,227.4563 C508.0795,227.4563 502.3805,221.7573 502.3805,214.7283" id="Fill-150" fill="#73B0DE"></path>
        <path d="M502.3805,319.2283 C502.3805,312.1983 508.0795,306.5003 515.1085,306.5003 C522.1375,306.5003 527.8365,312.1983 527.8365,319.2283 C527.8365,326.2573 522.1375,331.9563 515.1085,331.9563 C508.0795,331.9563 502.3805,326.2573 502.3805,319.2283" id="Fill-151" fill="#73B0DE"></path>
        <path d="M143.828,56 C146.164,56 147.796,54.992 147.796,52.928 C147.796,51.488 146.916,50.656 145.668,50.416 L145.668,50.352 C146.644,50.032 147.204,49.104 147.204,48.064 C147.204,46.224 145.716,45.504 143.588,45.504 L140.468,45.504 L140.468,56 L143.828,56 Z M143.364,49.968 L141.812,49.968 L141.812,46.576 L143.412,46.576 C145.044,46.576 145.876,47.024 145.876,48.24 C145.876,49.312 145.14,49.968 143.364,49.968 Z M143.636,54.928 L141.812,54.928 L141.812,50.992 L143.636,50.992 C145.46,50.992 146.468,51.584 146.468,52.88 C146.468,54.288 145.428,54.928 143.636,54.928 Z M149.892,56 L150.932,54.192 C151.204,53.728 151.46,53.248 151.716,52.8 L151.78,52.8 C152.068,53.248 152.356,53.728 152.628,54.192 L153.764,56 L155.204,56 L152.676,52.08 L155.028,48.224 L153.636,48.224 L152.692,49.92 C152.452,50.352 152.228,50.784 151.988,51.216 L151.924,51.216 C151.668,50.784 151.412,50.352 151.172,49.92 L150.132,48.224 L148.692,48.224 L151.044,51.936 L148.5,56 L149.892,56 Z M159.492,56.192 C161.396,56.192 163.108,54.704 163.108,52.128 C163.108,49.52 161.396,48.032 159.492,48.032 C157.588,48.032 155.892,49.52 155.892,52.128 C155.892,54.704 157.588,56.192 159.492,56.192 Z M159.492,55.088 C158.164,55.088 157.268,53.904 157.268,52.128 C157.268,50.336 158.164,49.136 159.492,49.136 C160.836,49.136 161.732,50.336 161.732,52.128 C161.732,53.904 160.836,55.088 159.492,55.088 Z M165.412,58.752 L165.412,56 L170.724,56 L170.724,58.752 L171.86,58.752 L172.004,55.76 L172.004,54.912 L170.868,54.912 L170.868,48.224 L166.02,48.224 L165.604,51.664 C165.3,54.16 164.948,54.688 164.516,54.912 L164.132,54.912 L164.132,55.76 L164.276,58.752 L165.412,58.752 Z M169.54,54.912 L165.94,54.912 C166.292,54.352 166.596,53.44 166.772,51.92 L167.076,49.296 L169.54,49.296 L169.54,54.912 Z M174.996,56 L174.996,52.544 L178.724,52.544 L178.724,56 L180.052,56 L180.052,48.224 L178.724,48.224 L178.724,51.376 L174.996,51.376 L174.996,48.224 L173.668,48.224 L173.668,56 L174.996,56 Z M185.684,56.192 C187.588,56.192 189.3,54.704 189.3,52.128 C189.3,49.52 187.588,48.032 185.684,48.032 C183.78,48.032 182.084,49.52 182.084,52.128 C182.084,54.704 183.78,56.192 185.684,56.192 Z M185.684,55.088 C184.356,55.088 183.46,53.904 183.46,52.128 C183.46,50.336 184.356,49.136 185.684,49.136 C187.028,49.136 187.924,50.336 187.924,52.128 C187.924,53.904 187.028,55.088 185.684,55.088 Z M194.58,46.832 C196.372,46.832 197.028,45.632 197.092,44.384 L196.004,44.384 C195.972,45.296 195.636,46.048 194.58,46.048 C193.524,46.048 193.188,45.296 193.156,44.384 L192.068,44.384 C192.132,45.632 192.788,46.832 194.58,46.832 Z M192.756,56 L195.524,51.616 C195.828,51.136 196.228,50.432 196.532,49.84 L196.596,49.84 C196.516,50.96 196.468,51.92 196.468,52.752 L196.468,56 L197.732,56 L197.732,48.224 L196.324,48.224 L193.54,52.624 C193.236,53.104 192.836,53.824 192.532,54.384 L192.468,54.384 C192.548,53.28 192.612,52.304 192.612,51.472 L192.612,48.224 L191.332,48.224 L191.332,56 L192.756,56 Z M206.644,56.192 C207.572,56.192 208.452,55.84 209.156,55.2 L208.58,54.352 C208.116,54.768 207.476,55.088 206.756,55.088 C205.332,55.088 204.372,53.904 204.372,52.128 C204.372,50.336 205.396,49.136 206.804,49.136 C207.428,49.136 207.924,49.376 208.356,49.776 L209.012,48.944 C208.468,48.432 207.764,48.032 206.74,48.032 C204.74,48.032 202.996,49.52 202.996,52.128 C202.996,54.704 204.58,56.192 206.644,56.192 Z M210.644,56.144 C211.78,56.144 212.484,55.296 212.708,53.6 C212.884,52.176 213.044,50.736 213.22,49.296 L215.62,49.296 L215.62,56 L216.948,56 L216.948,48.224 L212.164,48.224 C211.972,49.904 211.78,51.584 211.572,53.264 C211.428,54.368 211.076,54.864 210.532,54.864 C210.388,54.864 210.276,54.832 210.18,54.8 L209.924,56.016 C210.148,56.112 210.34,56.144 210.644,56.144 Z M222.596,56.192 C224.5,56.192 226.212,54.704 226.212,52.128 C226.212,49.52 224.5,48.032 222.596,48.032 C220.692,48.032 218.996,49.52 218.996,52.128 C218.996,54.704 220.692,56.192 222.596,56.192 Z M222.596,55.088 C221.268,55.088 220.372,53.904 220.372,52.128 C220.372,50.336 221.268,49.136 222.596,49.136 C223.94,49.136 224.836,50.336 224.836,52.128 C224.836,53.904 223.94,55.088 222.596,55.088 Z M231.492,46.832 C233.284,46.832 233.94,45.632 234.004,44.384 L232.916,44.384 C232.884,45.296 232.548,46.048 231.492,46.048 C230.436,46.048 230.1,45.296 230.068,44.384 L228.98,44.384 C229.044,45.632 229.7,46.832 231.492,46.832 Z M229.668,56 L232.436,51.616 C232.74,51.136 233.14,50.432 233.444,49.84 L233.508,49.84 C233.428,50.96 233.38,51.92 233.38,52.752 L233.38,56 L234.644,56 L234.644,48.224 L233.236,48.224 L230.452,52.624 C230.148,53.104 229.748,53.824 229.444,54.384 L229.38,54.384 C229.46,53.28 229.524,52.304 229.524,51.472 L229.524,48.224 L228.244,48.224 L228.244,56 L229.668,56 Z" id="Входнойслой" fill="#333333" fill-rule="nonzero"></path>
        <path d="M351.544,56.192 C352.888,56.192 353.912,55.648 354.76,54.672 L354.024,53.872 C353.352,54.608 352.6,55.008 351.592,55.008 C349.608,55.008 348.36,53.36 348.36,50.72 C348.36,48.112 349.672,46.496 351.64,46.496 C352.536,46.496 353.224,46.864 353.784,47.44 L354.52,46.608 C353.896,45.92 352.904,45.312 351.624,45.312 C348.952,45.312 346.968,47.376 346.968,50.752 C346.968,54.176 348.92,56.192 351.544,56.192 Z M357.896,56 L357.896,52.496 L359.576,52.496 L361.608,56 L363.048,56 L360.552,51.904 L361.208,50.384 C361.608,49.488 361.928,49.36 362.328,49.36 C362.44,49.36 362.488,49.376 362.584,49.408 L362.824,48.16 C362.696,48.096 362.536,48.064 362.36,48.064 C361.512,48.064 360.92,48.32 360.296,49.696 L359.528,51.424 L357.896,51.424 L357.896,48.224 L356.584,48.224 L356.584,56 L357.896,56 Z M365.832,59.28 L365.832,56.656 L365.8,55.296 C366.504,55.856 367.24,56.192 367.944,56.192 C369.72,56.192 371.32,54.64 371.32,52 C371.32,49.584 370.232,48.032 368.232,48.032 C367.336,48.032 366.456,48.528 365.752,49.12 L365.704,49.12 L365.592,48.224 L364.504,48.224 L364.504,59.28 L365.832,59.28 Z M367.72,55.072 C367.208,55.072 366.536,54.864 365.832,54.272 L365.832,50.208 C366.584,49.504 367.24,49.152 367.896,49.152 C369.352,49.152 369.944,50.288 369.944,52 C369.944,53.92 369,55.072 367.72,55.072 Z M375.8,56 C377.64,56 378.888,55.248 378.888,53.52 C378.888,51.808 377.64,51.088 375.8,51.088 L374.712,51.088 L374.712,48.224 L373.384,48.224 L373.384,56 L375.8,56 Z M381.56,56 L381.56,48.224 L380.232,48.224 L380.232,56 L381.56,56 Z M375.656,54.944 L374.712,54.944 L374.712,52.112 L375.656,52.112 C376.968,52.112 377.592,52.544 377.592,53.52 C377.592,54.496 376.968,54.944 375.656,54.944 Z M387.224,56 L387.224,49.296 L389.816,49.296 L389.816,48.224 L383.288,48.224 L383.288,49.296 L385.896,49.296 L385.896,56 L387.224,56 Z M393.96,56 C395.8,56 397.048,55.248 397.048,53.52 C397.048,51.808 395.8,51.088 393.96,51.088 L392.872,51.088 L392.872,48.224 L391.544,48.224 L391.544,56 L393.96,56 Z M399.72,56 L399.72,48.224 L398.392,48.224 L398.392,56 L399.72,56 Z M393.816,54.944 L392.872,54.944 L392.872,52.112 L393.816,52.112 C395.128,52.112 395.752,52.544 395.752,53.52 C395.752,54.496 395.128,54.944 393.816,54.944 Z M405.48,56.192 C406.552,56.192 407.384,55.872 408.056,55.392 L407.592,54.544 C407.048,54.912 406.392,55.12 405.64,55.12 C404.168,55.12 403.192,54.064 403.08,52.464 L408.312,52.464 C408.36,52.208 408.376,51.968 408.376,51.68 C408.376,49.44 407.24,48.032 405.256,48.032 C403.48,48.032 401.768,49.584 401.768,52.112 C401.768,54.688 403.4,56.192 405.48,56.192 Z M407.192,51.44 L403.08,51.44 C403.24,49.952 404.2,49.088 405.288,49.088 C406.472,49.088 407.192,49.904 407.192,51.44 Z M416.552,56.192 C417.48,56.192 418.36,55.84 419.064,55.2 L418.488,54.352 C418.024,54.768 417.384,55.088 416.664,55.088 C415.24,55.088 414.28,53.904 414.28,52.128 C414.28,50.336 415.304,49.136 416.712,49.136 C417.336,49.136 417.832,49.376 418.264,49.776 L418.92,48.944 C418.376,48.432 417.672,48.032 416.648,48.032 C414.648,48.032 412.904,49.52 412.904,52.128 C412.904,54.704 414.488,56.192 416.552,56.192 Z M420.552,56.144 C421.688,56.144 422.392,55.296 422.616,53.6 C422.792,52.176 422.952,50.736 423.128,49.296 L425.528,49.296 L425.528,56 L426.856,56 L426.856,48.224 L422.072,48.224 C421.88,49.904 421.688,51.584 421.48,53.264 C421.336,54.368 420.984,54.864 420.44,54.864 C420.296,54.864 420.184,54.832 420.088,54.8 L419.832,56.016 C420.056,56.112 420.248,56.144 420.552,56.144 Z M432.504,56.192 C434.408,56.192 436.12,54.704 436.12,52.128 C436.12,49.52 434.408,48.032 432.504,48.032 C430.6,48.032 428.904,49.52 428.904,52.128 C428.904,54.704 430.6,56.192 432.504,56.192 Z M432.504,55.088 C431.176,55.088 430.28,53.904 430.28,52.128 C430.28,50.336 431.176,49.136 432.504,49.136 C433.848,49.136 434.744,50.336 434.744,52.128 C434.744,53.904 433.848,55.088 432.504,55.088 Z M439.576,56 L442.344,51.616 C442.648,51.136 443.048,50.432 443.352,49.84 L443.416,49.84 C443.336,50.96 443.288,51.92 443.288,52.752 L443.288,56 L444.552,56 L444.552,48.224 L443.144,48.224 L440.36,52.624 C440.056,53.104 439.656,53.824 439.352,54.384 L439.288,54.384 C439.368,53.28 439.432,52.304 439.432,51.472 L439.432,48.224 L438.152,48.224 L438.152,56 L439.576,56 Z" id="Скрытыеслои" fill="#333333" fill-rule="nonzero"></path>
        <path d="M555.848,56 C558.184,56 559.816,54.992 559.816,52.928 C559.816,51.488 558.936,50.656 557.688,50.416 L557.688,50.352 C558.664,50.032 559.224,49.104 559.224,48.064 C559.224,46.224 557.736,45.504 555.608,45.504 L552.488,45.504 L552.488,56 L555.848,56 Z M555.384,49.968 L553.832,49.968 L553.832,46.576 L555.432,46.576 C557.064,46.576 557.896,47.024 557.896,48.24 C557.896,49.312 557.16,49.968 555.384,49.968 Z M555.656,54.928 L553.832,54.928 L553.832,50.992 L555.656,50.992 C557.48,50.992 558.488,51.584 558.488,52.88 C558.488,54.288 557.448,54.928 555.656,54.928 Z M564.184,56 C566.024,56 567.272,55.248 567.272,53.52 C567.272,51.808 566.024,51.088 564.184,51.088 L563.096,51.088 L563.096,48.224 L561.768,48.224 L561.768,56 L564.184,56 Z M569.944,56 L569.944,48.224 L568.616,48.224 L568.616,56 L569.944,56 Z M564.04,54.944 L563.096,54.944 L563.096,52.112 L564.04,52.112 C565.352,52.112 565.976,52.544 565.976,53.52 C565.976,54.496 565.352,54.944 564.04,54.944 Z M572.872,56 L573.912,54.192 C574.184,53.728 574.44,53.248 574.696,52.8 L574.76,52.8 C575.048,53.248 575.336,53.728 575.608,54.192 L576.744,56 L578.184,56 L575.656,52.08 L578.008,48.224 L576.616,48.224 L575.672,49.92 C575.432,50.352 575.208,50.784 574.968,51.216 L574.904,51.216 C574.648,50.784 574.392,50.352 574.152,49.92 L573.112,48.224 L571.672,48.224 L574.024,51.936 L571.48,56 L572.872,56 Z M582.472,56.192 C584.376,56.192 586.088,54.704 586.088,52.128 C586.088,49.52 584.376,48.032 582.472,48.032 C580.568,48.032 578.872,49.52 578.872,52.128 C578.872,54.704 580.568,56.192 582.472,56.192 Z M582.472,55.088 C581.144,55.088 580.248,53.904 580.248,52.128 C580.248,50.336 581.144,49.136 582.472,49.136 C583.816,49.136 584.712,50.336 584.712,52.128 C584.712,53.904 583.816,55.088 582.472,55.088 Z M588.392,58.752 L588.392,56 L593.704,56 L593.704,58.752 L594.84,58.752 L594.984,55.76 L594.984,54.912 L593.848,54.912 L593.848,48.224 L589,48.224 L588.584,51.664 C588.28,54.16 587.928,54.688 587.496,54.912 L587.112,54.912 L587.112,55.76 L587.256,58.752 L588.392,58.752 Z M592.52,54.912 L588.92,54.912 C589.272,54.352 589.576,53.44 589.752,51.92 L590.056,49.296 L592.52,49.296 L592.52,54.912 Z M597.976,56 L597.976,52.544 L601.704,52.544 L601.704,56 L603.032,56 L603.032,48.224 L601.704,48.224 L601.704,51.376 L597.976,51.376 L597.976,48.224 L596.648,48.224 L596.648,56 L597.976,56 Z M608.664,56.192 C610.568,56.192 612.28,54.704 612.28,52.128 C612.28,49.52 610.568,48.032 608.664,48.032 C606.76,48.032 605.064,49.52 605.064,52.128 C605.064,54.704 606.76,56.192 608.664,56.192 Z M608.664,55.088 C607.336,55.088 606.44,53.904 606.44,52.128 C606.44,50.336 607.336,49.136 608.664,49.136 C610.008,49.136 610.904,50.336 610.904,52.128 C610.904,53.904 610.008,55.088 608.664,55.088 Z M617.56,46.832 C619.352,46.832 620.008,45.632 620.072,44.384 L618.984,44.384 C618.952,45.296 618.616,46.048 617.56,46.048 C616.504,46.048 616.168,45.296 616.136,44.384 L615.048,44.384 C615.112,45.632 615.768,46.832 617.56,46.832 Z M615.736,56 L618.504,51.616 C618.808,51.136 619.208,50.432 619.512,49.84 L619.576,49.84 C619.496,50.96 619.448,51.92 619.448,52.752 L619.448,56 L620.712,56 L620.712,48.224 L619.304,48.224 L616.52,52.624 C616.216,53.104 615.816,53.824 615.512,54.384 L615.448,54.384 C615.528,53.28 615.592,52.304 615.592,51.472 L615.592,48.224 L614.312,48.224 L614.312,56 L615.736,56 Z M629.624,56.192 C630.552,56.192 631.432,55.84 632.136,55.2 L631.56,54.352 C631.096,54.768 630.456,55.088 629.736,55.088 C628.312,55.088 627.352,53.904 627.352,52.128 C627.352,50.336 628.376,49.136 629.784,49.136 C630.408,49.136 630.904,49.376 631.336,49.776 L631.992,48.944 C631.448,48.432 630.744,48.032 629.72,48.032 C627.72,48.032 625.976,49.52 625.976,52.128 C625.976,54.704 627.56,56.192 629.624,56.192 Z M633.624,56.144 C634.76,56.144 635.464,55.296 635.688,53.6 C635.864,52.176 636.024,50.736 636.2,49.296 L638.6,49.296 L638.6,56 L639.928,56 L639.928,48.224 L635.144,48.224 C634.952,49.904 634.76,51.584 634.552,53.264 C634.408,54.368 634.056,54.864 633.512,54.864 C633.368,54.864 633.256,54.832 633.16,54.8 L632.904,56.016 C633.128,56.112 633.32,56.144 633.624,56.144 Z M645.576,56.192 C647.48,56.192 649.192,54.704 649.192,52.128 C649.192,49.52 647.48,48.032 645.576,48.032 C643.672,48.032 641.976,49.52 641.976,52.128 C641.976,54.704 643.672,56.192 645.576,56.192 Z M645.576,55.088 C644.248,55.088 643.352,53.904 643.352,52.128 C643.352,50.336 644.248,49.136 645.576,49.136 C646.92,49.136 647.816,50.336 647.816,52.128 C647.816,53.904 646.92,55.088 645.576,55.088 Z M654.472,46.832 C656.264,46.832 656.92,45.632 656.984,44.384 L655.896,44.384 C655.864,45.296 655.528,46.048 654.472,46.048 C653.416,46.048 653.08,45.296 653.048,44.384 L651.96,44.384 C652.024,45.632 652.68,46.832 654.472,46.832 Z M652.648,56 L655.416,51.616 C655.72,51.136 656.12,50.432 656.424,49.84 L656.488,49.84 C656.408,50.96 656.36,51.92 656.36,52.752 L656.36,56 L657.624,56 L657.624,48.224 L656.216,48.224 L653.432,52.624 C653.128,53.104 652.728,53.824 652.424,54.384 L652.36,54.384 C652.44,53.28 652.504,52.304 652.504,51.472 L652.504,48.224 L651.224,48.224 L651.224,56 L652.648,56 Z" id="Выходнойслой" fill="#333333" fill-rule="nonzero"></path>
        <path d="M142.616,174 L143.656,172.192 C143.928,171.728 144.184,171.248 144.44,170.8 L144.504,170.8 C144.792,171.248 145.08,171.728 145.352,172.192 L146.488,174 L147.928,174 L145.4,170.08 L147.752,166.224 L146.36,166.224 L145.416,167.92 C145.176,168.352 144.952,168.784 144.712,169.216 L144.648,169.216 C144.392,168.784 144.136,168.352 143.896,167.92 L142.856,166.224 L141.416,166.224 L143.768,169.936 L141.224,174 L142.616,174 Z M154.48,178 L154.48,177.006 L151.806,177.006 C151.344,177.006 150.798,177.034 150.308,177.076 C152.478,174.864 154.046,173.254 154.046,171.518 C154.046,169.95 153.01,168.9 151.358,168.9 C150.21,168.9 149.412,169.446 148.67,170.286 L149.328,170.916 C149.832,170.328 150.476,169.852 151.218,169.852 C152.352,169.852 152.912,170.566 152.912,171.588 C152.912,173.03 151.372,174.682 148.712,177.286 L148.712,178 L154.48,178 Z" id="x2" fill="#333333" fill-rule="nonzero"></path>
        <path d="M640.48,174 L640.48,169.936 L643.648,163.504 L642.24,163.504 L640.896,166.464 C640.576,167.232 640.208,167.968 639.856,168.752 L639.792,168.752 C639.424,167.968 639.104,167.232 638.768,166.464 L637.424,163.504 L635.984,163.504 L639.136,169.936 L639.136,174 L640.48,174 Z M649.944,178 L649.944,177.006 L647.27,177.006 C646.808,177.006 646.262,177.034 645.772,177.076 C647.942,174.864 649.51,173.254 649.51,171.518 C649.51,169.95 648.474,168.9 646.822,168.9 C645.674,168.9 644.876,169.446 644.134,170.286 L644.792,170.916 C645.296,170.328 645.94,169.852 646.682,169.852 C647.816,169.852 648.376,170.566 648.376,171.588 C648.376,173.03 646.836,174.682 644.176,177.286 L644.176,178 L649.944,178 Z" id="Y2" fill="#333333" fill-rule="nonzero"></path>
        <path d="M142.616,115 L143.656,113.192 C143.928,112.728 144.184,112.248 144.44,111.8 L144.504,111.8 C144.792,112.248 145.08,112.728 145.352,113.192 L146.488,115 L147.928,115 L145.4,111.08 L147.752,107.224 L146.36,107.224 L145.416,108.92 C145.176,109.352 144.952,109.784 144.712,110.216 L144.648,110.216 C144.392,109.784 144.136,109.352 143.896,108.92 L142.856,107.224 L141.416,107.224 L143.768,110.936 L141.224,115 L142.616,115 Z M154.298,119 L154.298,118.034 L152.464,118.034 L152.464,110.068 L151.568,110.068 C151.078,110.362 150.49,110.586 149.664,110.726 L149.664,111.482 L151.302,111.482 L151.302,118.034 L149.258,118.034 L149.258,119 L154.298,119 Z" id="x1" fill="#333333" fill-rule="nonzero"></path>
        <path d="M640.48,115 L640.48,110.936 L643.648,104.504 L642.24,104.504 L640.896,107.464 C640.576,108.232 640.208,108.968 639.856,109.752 L639.792,109.752 C639.424,108.968 639.104,108.232 638.768,107.464 L637.424,104.504 L635.984,104.504 L639.136,110.936 L639.136,115 L640.48,115 Z M649.762,119 L649.762,118.034 L647.928,118.034 L647.928,110.068 L647.032,110.068 C646.542,110.362 645.954,110.586 645.128,110.726 L645.128,111.482 L646.766,111.482 L646.766,118.034 L644.722,118.034 L644.722,119 L649.762,119 Z" id="Y1" fill="#333333" fill-rule="nonzero"></path>
        <path d="M142.616,280 L143.656,278.192 C143.928,277.728 144.184,277.248 144.44,276.8 L144.504,276.8 C144.792,277.248 145.08,277.728 145.352,278.192 L146.488,280 L147.928,280 L145.4,276.08 L147.752,272.224 L146.36,272.224 L145.416,273.92 C145.176,274.352 144.952,274.784 144.712,275.216 L144.648,275.216 C144.392,274.784 144.136,274.352 143.896,273.92 L142.856,272.224 L141.416,272.224 L143.768,275.936 L141.224,280 L142.616,280 Z M150.462,284 L150.462,279.072 C151.134,278.386 151.624,278.036 152.31,278.036 C153.206,278.036 153.598,278.568 153.598,279.842 L153.598,284 L154.76,284 L154.76,279.688 C154.76,277.952 154.116,277.028 152.674,277.028 C151.736,277.028 151.036,277.532 150.392,278.176 L150.35,278.176 L150.252,277.196 L149.3,277.196 L149.3,284 L150.462,284 Z" id="xn" fill="#333333" fill-rule="nonzero"></path>
        <path d="M640.48,280 L640.48,275.936 L643.648,269.504 L642.24,269.504 L640.896,272.464 C640.576,273.232 640.208,273.968 639.856,274.752 L639.792,274.752 C639.424,273.968 639.104,273.232 638.768,272.464 L637.424,269.504 L635.984,269.504 L639.136,275.936 L639.136,280 L640.48,280 Z M645.926,284 L645.926,279.072 C646.556,278.372 647.116,278.036 647.62,278.036 C648.488,278.036 648.88,278.568 648.88,279.842 L648.88,284 L650.042,284 L650.042,279.072 C650.672,278.372 651.218,278.036 651.75,278.036 C652.604,278.036 653.01,278.568 653.01,279.842 L653.01,284 L654.172,284 L654.172,279.688 C654.172,277.952 653.5,277.028 652.1,277.028 C651.274,277.028 650.56,277.56 649.86,278.316 C649.58,277.518 649.02,277.028 647.97,277.028 C647.158,277.028 646.458,277.532 645.856,278.176 L645.814,278.176 L645.716,277.196 L644.764,277.196 L644.764,284 L645.926,284 Z" id="Ym" fill="#333333" fill-rule="nonzero"></path>
    </g>
</svg>